<svg xmlns="http://www.w3.org/2000/svg" width="40" height="40" viewBox="0 0 40 40">
  <g fill="none" fill-rule="evenodd">
    <path fill="#5a6e32" d="M20,0 C31.0457,0 40,8.9543 40,20 C40,31.0457 31.0457,40 20,40 C8.9543,40 0,31.0457 0,20 C0,8.9543 8.9543,0 20,0 Z"/>
    <path fill="#FFFFFF" d="M20,10 C22.7614,10 25,12.2386 25,15 C25,17.7614 22.7614,20 20,20 C17.2386,20 15,17.7614 15,15 C15,12.2386 17.2386,10 20,10 Z M20,22 C26.0751,22 31,24.6863 31,28 L31,30 L9,30 L9,28 C9,24.6863 13.9249,22 20,22 Z"/>
  </g>
</svg>
